<svg width="520" height="320" viewBox="0 0 520 320" xmlns="http://www.w3.org/2000/svg">
<defs>
  <linearGradient id="g" x1="0" x2="1" y1="0" y2="1">
    <stop offset="0" stop-color="#1e224f"/>
    <stop offset="1" stop-color="#ffd451"/>
  </linearGradient>
  <filter id="shadow"><feDropShadow dx="0" dy="12" stdDeviation="12" flood-color="#000" flood-opacity=".45"/></filter>
</defs>
<rect width="520" height="320" rx="34" fill="#0b1220"/>
<rect x="18" y="18" width="484" height="284" rx="28" fill="url(#g)" opacity=".88"/>
<circle cx="420" cy="70" r="96" fill="#fff" opacity=".08"/>
<circle cx="110" cy="250" r="130" fill="#000" opacity=".18"/>
<g filter="url(#shadow)" transform="translate(58 105)">
  <path d="M18 82 L270 48 L384 62 L376 90 L250 84 L156 112 L26 112 Z" fill="#111827" opacity=".92"/>
  <path d="M274 48 L366 24 L398 42 L384 62 Z" fill="#111827" opacity=".92"/>
  <path d="M122 106 L90 150 L132 150 L178 100 Z" fill="#111827" opacity=".92"/>
  <rect x="292" y="72" width="72" height="18" rx="9" fill="#ffd451" opacity=".85"/>
  <rect x="48" y="88" width="112" height="10" rx="5" fill="#ffd451" opacity=".7"/>
</g>
<text x="34" y="56" font-family="Arial, sans-serif" font-size="24" font-weight="800" fill="#fff">M4A4</text>
<text x="34" y="88" font-family="Arial, sans-serif" font-size="34" font-weight="900" fill="#fff">The Emperor</text>
<text x="34" y="276" font-family="Arial, sans-serif" font-size="16" font-weight="700" fill="#fff" opacity=".72">CS2 SKIN CARD</text>
</svg>
